<svg xmlns="http://www.w3.org/2000/svg" x="0px" y="0px"
width="64" height="64"
viewBox="0 0 172 172"
fill="currentColor"><g fill="none" fill-rule="nonzero" stroke="none" stroke-width="1" stroke-linecap="butt" stroke-linejoin="miter" stroke-miterlimit="10" stroke-dasharray="" stroke-dashoffset="0" font-family="none" font-weight="none" font-size="none" text-anchor="none" style="mix-blend-mode: normal"><path d="M0,172v-172h172v172z" fill="none"></path><g fill="#000000"><path d="M31.57813,30.90625c-1.48888,0 -2.6875,1.19862 -2.6875,2.6875v104.47656c0,1.48888 1.19862,2.6875 2.6875,2.6875h23.85156c1.48887,0 2.6875,-1.19862 2.6875,-2.6875v-104.47656c0,-1.48888 -1.19863,-2.6875 -2.6875,-2.6875zM140.31821,31.07684c-0.57313,0.01952 -1.12514,0.22107 -1.57602,0.57542l-66.17444,52.23828c-0.64602,0.50915 -1.02331,1.28611 -1.02395,2.10866c-0.00064,0.82255 0.37544,1.60009 1.02067,2.11025h0.00066l66.17116,52.23828c0.47431,0.37442 1.06097,0.57806 1.66525,0.57805c0.4093,0.00012 0.81339,-0.09182 1.18234,-0.26901c0.92919,-0.44806 1.52139,-1.38692 1.5255,-2.41849v-104.47656c-0.00346,-0.7296 -0.30214,-1.42673 -0.82796,-1.93253c-0.52583,-0.5058 -1.23402,-0.7772 -1.9632,-0.75235z"></path></g></g></svg>